<svg id="Layer_1" data-name="Layer 1" xmlns="http://www.w3.org/2000/svg" width="33" height="33" viewBox="0 0 33 33"><defs><style>.cls-1{fill:#ccc;stroke:#303030;stroke-miterlimit:10;}.cls-2{fill:#fff;}</style></defs><title>icon momo</title><path class="cls-1" d="M31.9986,4.11a2.91,2.91,0,0,0-.0332-.5134A3.1237,3.1237,0,0,0,28.7425.9789q-8.898-.0017-17.7961,0c-2.26,0-4.5208-.0069-6.7811.0021A3.0853,3.0853,0,0,0,1.0024,4.0254Q.999,16.5033,1,28.9814a2.7765,2.7765,0,0,0,.1277.8453,3.1319,3.1319,0,0,0,3.1759,2.1967q12.1854.0018,24.3707,0c.1146,0,.2293-.0043.3439-.01A3.0928,3.0928,0,0,0,32,28.8934Q32,22.7145,32,16.5359,32,10.3229,31.9986,4.11Z"/><path class="cls-2" d="M23.1228,14.1889a5.047,5.047,0,1,1,5.0243-5.1173A5.0593,5.0593,0,0,1,23.1228,14.1889Zm-.0423-2.8814a2.1746,2.1746,0,1,0,.0187-4.349,2.1745,2.1745,0,0,0-.0187,4.349Z"/><path class="cls-2" d="M28.1471,20.7642a5.05,5.05,0,1,1-5.0224-5.0495A5.0493,5.0493,0,0,1,28.1471,20.7642Zm-2.8706.0077a2.18,2.18,0,1,0-2.1921,2.1731A2.174,2.174,0,0,0,25.2765,20.7719Z"/><path class="cls-2" d="M5.239,27.3722v.2086h.0059a.6039.6039,0,0,1,.2012-.1848.5455.5455,0,0,1,.27-.0656.6212.6212,0,0,1,.2668.0566.3749.3749,0,0,1,.1833.2.6574.6574,0,0,1,.1863-.1789A.4951.4951,0,0,1,6.631,27.33a.8252.8252,0,0,1,.2266.03.457.457,0,0,1,.1788.0954.4386.4386,0,0,1,.1163.1714.6962.6962,0,0,1,.0417.2549v1.0314H6.7711V28.04q0-.0774-.0059-.146a.3137.3137,0,0,0-.0328-.1192.1992.1992,0,0,0-.079-.0805.2855.2855,0,0,0-.1416-.03.27.27,0,0,0-.1446.0343.2466.2466,0,0,0-.0864.0894.3565.3565,0,0,0-.0417.1252.9539.9539,0,0,0-.01.1416v.8585H5.8053v-.8645q0-.0686-.0029-.1356A.3841.3841,0,0,0,5.777,27.79a.1906.1906,0,0,0-.0745-.0909.2808.2808,0,0,0-.1535-.0343.32.32,0,0,0-.0791.0134.26.26,0,0,0-.0953.0507.2969.2969,0,0,0-.079.1073.4349.4349,0,0,0-.0328.1833v.8943H4.84V27.3722Z"/><path class="cls-2" d="M7.7854,27.8089a.7039.7039,0,0,1,.4114-.42.8785.8785,0,0,1,.3278-.0582.89.89,0,0,1,.3294.0582.7017.7017,0,0,1,.4129.42.9469.9469,0,0,1,.0566.3353.9342.9342,0,0,1-.0566.3338.7236.7236,0,0,1-.161.2549.7008.7008,0,0,1-.2519.1625.9136.9136,0,0,1-.3294.0566.9013.9013,0,0,1-.3278-.0566.7047.7047,0,0,1-.25-.1625.7234.7234,0,0,1-.1609-.2549.932.932,0,0,1-.0566-.3338A.9447.9447,0,0,1,7.7854,27.8089Zm.3845.5157a.4814.4814,0,0,0,.0611.158.325.325,0,0,0,.1148.1117.3494.3494,0,0,0,.1788.0417.358.358,0,0,0,.18-.0417.3221.3221,0,0,0,.1163-.1117.4812.4812,0,0,0,.061-.158.8974.8974,0,0,0,.0179-.18.9187.9187,0,0,0-.0179-.1818.4638.4638,0,0,0-.061-.158.34.34,0,0,0-.1163-.1118.349.349,0,0,0-.18-.0432.3255.3255,0,0,0-.2936.155.4639.4639,0,0,0-.0611.158.9263.9263,0,0,0-.0179.1818A.9047.9047,0,0,0,8.17,28.3246Z"/><path class="cls-2" d="M10.3311,26.7849V27.56h.0059a.4525.4525,0,0,1,.21-.1745.7126.7126,0,0,1,.2757-.0551.5876.5876,0,0,1,.4338.1938.7469.7469,0,0,1,.1475.2518,1.2045,1.2045,0,0,1,0,.73.7469.7469,0,0,1-.1475.2518.5876.5876,0,0,1-.4338.1938.8124.8124,0,0,1-.304-.0537.3857.3857,0,0,1-.2027-.1817H10.31v.1967H9.9078V26.7849Zm.6856,1.1715a.4917.4917,0,0,0-.0656-.158.3441.3441,0,0,0-.1117-.1088.3455.3455,0,0,0-.3235,0,.3393.3393,0,0,0-.1133.1088.4917.4917,0,0,0-.0656.158.8245.8245,0,0,0-.0208.1878.811.811,0,0,0,.0208.1848.4908.4908,0,0,0,.0656.158.3383.3383,0,0,0,.1133.1088.3455.3455,0,0,0,.3235,0,.3431.3431,0,0,0,.1117-.1088.4908.4908,0,0,0,.0656-.158.811.811,0,0,0,.0208-.1848A.8245.8245,0,0,0,11.0167,27.9564Z"/><path class="cls-2" d="M12.04,27.1337v-.3488h.4234v.3488Zm.4234.2385v1.5411H12.04V27.3722Z"/><path class="cls-2" d="M13.5993,26.7849v2.1284H13.176V26.7849Z"/><path class="cls-2" d="M14.68,28.5436a.4341.4341,0,0,0,.4949.0283.2658.2658,0,0,0,.1132-.1355h.3726a.7075.7075,0,0,1-.2742.3964.8074.8074,0,0,1-.4471.1192.8816.8816,0,0,1-.328-.0581.68.68,0,0,1-.2473-.1655.7439.7439,0,0,1-.1566-.2563.94.94,0,0,1-.0551-.3279.9.9,0,0,1,.0566-.3219.7451.7451,0,0,1,.41-.4293.7989.7989,0,0,1,.32-.0626.732.732,0,0,1,.3427.076.6849.6849,0,0,1,.24.2042.8394.8394,0,0,1,.1356.2922,1.0925,1.0925,0,0,1,.03.3427H14.5761A.4273.4273,0,0,0,14.68,28.5436Zm.4785-.8108a.2977.2977,0,0,0-.2311-.0834.369.369,0,0,0-.1684.0342.3222.3222,0,0,0-.1073.085.3117.3117,0,0,0-.0566.1073.477.477,0,0,0-.0194.1014h.6885A.4893.4893,0,0,0,15.1589,27.7328Z"/><path class="cls-2" d="M17.9853,27.3722v.2086h.006a.603.603,0,0,1,.2012-.1848.5451.5451,0,0,1,.27-.0656.6216.6216,0,0,1,.2669.0566.3747.3747,0,0,1,.1832.2.6587.6587,0,0,1,.1863-.1789.4956.4956,0,0,1,.2788-.0775.824.824,0,0,1,.2265.03.4567.4567,0,0,1,.1789.0954.4384.4384,0,0,1,.1162.1714.694.694,0,0,1,.0418.2549v1.0314h-.4233V28.04q0-.0774-.006-.146a.31.31,0,0,0-.0328-.1192.1986.1986,0,0,0-.079-.0805.285.285,0,0,0-.1416-.03.27.27,0,0,0-.1445.0343.2477.2477,0,0,0-.0865.0894.3585.3585,0,0,0-.0417.1252.9538.9538,0,0,0-.01.1416v.8585h-.4233v-.8645c0-.0457-.0011-.0909-.003-.1356a.384.384,0,0,0-.0253-.1237.19.19,0,0,0-.0746-.0909.2806.2806,0,0,0-.1535-.0343.319.319,0,0,0-.079.0134.2606.2606,0,0,0-.0954.0507.2969.2969,0,0,0-.079.1073.4366.4366,0,0,0-.0327.1833v.8943h-.4234V27.3722Z"/><path class="cls-2" d="M20.5527,27.8089a.7046.7046,0,0,1,.4114-.42.8794.8794,0,0,1,.3279-.0582.8912.8912,0,0,1,.3294.0582.7012.7012,0,0,1,.4128.42.9447.9447,0,0,1,.0566.3353.932.932,0,0,1-.0566.3338.7234.7234,0,0,1-.1609.2549.7026.7026,0,0,1-.2519.1625.9144.9144,0,0,1-.3294.0566.9023.9023,0,0,1-.3279-.0566.7034.7034,0,0,1-.25-.1625.7222.7222,0,0,1-.161-.2549.932.932,0,0,1-.0566-.3338A.9447.9447,0,0,1,20.5527,27.8089Zm.3846.5157a.4792.4792,0,0,0,.0611.158.3247.3247,0,0,0,.1147.1117.35.35,0,0,0,.1789.0417.3578.3578,0,0,0,.18-.0417.3221.3221,0,0,0,.1163-.1117.4814.4814,0,0,0,.0611-.158.9047.9047,0,0,0,.0179-.18.9263.9263,0,0,0-.0179-.1818.4639.4639,0,0,0-.0611-.158.34.34,0,0,0-.1163-.1118.3488.3488,0,0,0-.18-.0432.3252.3252,0,0,0-.2936.155.4619.4619,0,0,0-.0611.158.9187.9187,0,0,0-.0179.1818A.8974.8974,0,0,0,20.9373,28.3246Z"/><path class="cls-2" d="M23.0832,27.3722v.2146h.009a.4852.4852,0,0,1,.2087-.1953.6035.6035,0,0,1,.2623-.0611.7194.7194,0,0,1,.2787.0462.4143.4143,0,0,1,.1714.1282.4968.4968,0,0,1,.0879.2,1.248,1.248,0,0,1,.0253.2608v.948h-.4232v-.87a.54.54,0,0,0-.06-.2848.2309.2309,0,0,0-.2116-.0938.2933.2933,0,0,0-.25.1028.5716.5716,0,0,0-.0775.3383v.8079h-.4233V27.3722Z"/><path class="cls-2" d="M25.2154,28.5436a.4341.4341,0,0,0,.4949.0283.2648.2648,0,0,0,.1132-.1355h.3726a.7071.7071,0,0,1-.2742.3964.807.807,0,0,1-.4471.1192.8811.8811,0,0,1-.3279-.0581.68.68,0,0,1-.2474-.1655.7422.7422,0,0,1-.1565-.2563.9378.9378,0,0,1-.0551-.3279.8981.8981,0,0,1,.0566-.3219.7443.7443,0,0,1,.41-.4293.798.798,0,0,1,.32-.0626.7327.7327,0,0,1,.3428.076.6858.6858,0,0,1,.24.2042.8412.8412,0,0,1,.1356.2922,1.09,1.09,0,0,1,.03.3427H25.1111A.4277.4277,0,0,0,25.2154,28.5436Zm.4785-.8108a.2974.2974,0,0,0-.231-.0834.3688.3688,0,0,0-.1684.0342.3216.3216,0,0,0-.1074.085.3117.3117,0,0,0-.0566.1073.49.49,0,0,0-.0194.1014H25.8A.4894.4894,0,0,0,25.6939,27.7328Z"/><path class="cls-2" d="M27.3258,29.3723a.6133.6133,0,0,1-.34.0805q-.0657,0-.13-.0045c-.0428-.0029-.086-.0065-.13-.01v-.3487l.1222.0119a.8878.8878,0,0,0,.1252.0029.1646.1646,0,0,0,.1238-.0656.2111.2111,0,0,0,.04-.1251.2549.2549,0,0,0-.0179-.0954l-.54-1.4457h.45l.3487,1.0552h.006l.3368-1.0552h.4382l-.6438,1.7318A.5211.5211,0,0,1,27.3258,29.3723Z"/><path class="cls-2" d="M17.1154,13.5088c-.0078-1.9565-.002-3.913-.006-5.8695a3.29,3.29,0,0,0-.8088-2.1775,4.0077,4.0077,0,0,0-5.0648-.8156.4133.4133,0,0,1-.49-.0035,3.9418,3.9418,0,0,0-2.75-.49A3.6454,3.6454,0,0,0,4.8663,7.8484c.0315.9284.0054,1.8588.0054,2.7883,0,1.09.0062,2.1443-.005,3.2343l.002.0186v.307l3.11-.008v-.4934l-.0006.0005c-.0151-1.9764-.0059-3.953-.01-5.9294a.7234.7234,0,0,1,.2312-.618.7325.7325,0,0,1,.8031-.1274.6975.6975,0,0,1,.4386.7088c-.0052,2.0425.0031,4.0851-.0093,6.1276,0,.0192,0,.0372.001.0545v.2848h3.1126v-.6879h-.0022c-.011-1.9205-.0068-3.8411-.0047-5.7617a.737.737,0,0,1,.8271-.786.7509.7509,0,0,1,.6638.8568c.002,1.9575.0069,3.9151-.0057,5.8725H14.022v.5061h3.0945v-.6879Z"/><path class="cls-2" d="M17.1154,25.1368c-.0078-1.9564-.002-3.9129-.006-5.8694a3.29,3.29,0,0,0-.8088-2.1775,4.0078,4.0078,0,0,0-5.0648-.8157.4132.4132,0,0,1-.49-.0034,3.9418,3.9418,0,0,0-2.75-.49,3.6454,3.6454,0,0,0-3.1292,3.6958c.0315.9284.0054,1.8588.0054,2.7883,0,1.09.0062,2.1443-.005,3.2343l.002.0186v.307l3.11-.008v-.4934l-.0006,0c-.0151-1.9764-.0059-3.953-.01-5.9295a.7233.7233,0,0,1,.2312-.6179.7325.7325,0,0,1,.8031-.1274.6975.6975,0,0,1,.4386.7088c-.0052,2.0425.0031,4.0851-.0093,6.1276,0,.0192,0,.0372.001.0545v.2848h3.1126v-.6879h-.0022c-.011-1.9205-.0068-3.8411-.0047-5.7617a.737.737,0,0,1,.8271-.786c.4234.0487.6633.3517.6638.8568.002,1.9575.0069,3.9151-.0057,5.8725H14.022v.5061h3.0945v-.6879Z"/></svg>