<svg id="Layer_1" data-name="Layer 1" xmlns="http://www.w3.org/2000/svg" width="15.1756" height="15.1756" viewBox="0 0 15.1756 15.1756"><defs><style>.cls-1{fill:#f15e2c;}</style></defs><title>icon cham hoi</title><path class="cls-1" d="M7.5878,15.0878a7.5,7.5,0,1,1,7.5-7.5A7.5018,7.5018,0,0,1,7.5878,15.0878Zm.1955-12.5A3.9669,3.9669,0,0,0,4.16,4.6679a.3076.3076,0,0,0,.0785.41l1.289.9765a.3038.3038,0,0,0,.1854.0587.31.31,0,0,0,.2441-.1175,4.29,4.29,0,0,1,.84-.8985,1.5616,1.5616,0,0,1,.84-.234c.625,0,1.2014.4007,1.2014.83,0,.5075-.2639.7618-.8595,1.0353A2.6544,2.6544,0,0,0,6.3378,8.7983v.3525a.3084.3084,0,0,0,.3125.312h1.875a.3085.3085,0,0,0,.3125-.312,1.4672,1.4672,0,0,1,.742-.9669,2.7136,2.7136,0,0,0,1.758-2.4711C11.3378,3.9254,9.4628,2.5878,7.7833,2.5878Zm1.0545,7.813a.3087.3087,0,0,0-.3125-.313H6.65a.3086.3086,0,0,0-.3125.313v1.8739a.3087.3087,0,0,0,.3125.3131h1.875a.3087.3087,0,0,0,.3125-.3131Z"/></svg>